<?xml version="1.0" encoding="utf-8"?>
<!-- Generator: Adobe Illustrator 25.4.1, SVG Export Plug-In . SVG Version: 6.00 Build 0)  -->
<svg version="1.1" id="Capa_1" xmlns="http://www.w3.org/2000/svg" xmlns:xlink="http://www.w3.org/1999/xlink" x="0px" y="0px"
	 viewBox="0 0 120.6 120.6" style="enable-background:new 0 0 120.6 120.6;" xml:space="preserve">
<style type="text/css">
	.st0{fill:#C5A484;}
	.st1{fill:#FFFFFF;}
</style>
<g>
	<path class="st1" d="M48,10.2c-0.4,0.6-1,1-1.8,1.2c-0.7,0.2-1.4,0.2-2-0.1c-0.6-0.3-1-0.7-1.3-1.2l0.9-0.5c0.2,0.4,0.5,0.8,0.9,1
		c0.5,0.2,0.9,0.3,1.4,0.1c0.9-0.3,1.4-1,1.2-1.8C47.1,8.1,46.5,8,45.1,8c-1.7,0.1-2.6-0.4-2.9-1.4c-0.2-0.6-0.1-1.2,0.3-1.7
		c0.4-0.6,0.9-0.9,1.6-1.1c0.7-0.2,1.3-0.2,1.9,0c0.6,0.2,1,0.6,1.2,1l-0.9,0.5c-0.2-0.3-0.5-0.6-0.9-0.8c-0.4-0.2-0.8-0.2-1.2-0.1
		c-0.8,0.2-1.3,0.9-1.1,1.6c0.1,0.3,0.3,0.5,0.6,0.6s0.8,0.1,1.4,0.1c1.9-0.1,2.7,0.4,3.1,1.6C48.5,9,48.4,9.6,48,10.2z"/>
	<path class="st1" d="M50,3.5c0.6-0.9,1.5-1.4,2.5-1.5c0.9-0.1,1.9,0.1,2.8,0.6l-0.5,0.9c-0.7-0.6-1.4-0.9-2.1-0.8
		c-0.7,0.1-1.3,0.5-1.7,1.2s-0.5,1.5-0.4,2.4c0.1,0.9,0.5,1.6,1.1,2.2s1.2,0.8,1.9,0.7c0.7-0.1,1.4-0.5,2.1-1.3l0.5,0.4
		c-0.7,0.9-1.6,1.5-2.7,1.6c-1,0.1-2-0.1-2.8-0.7c-0.8-0.6-1.3-1.5-1.5-2.6C49.1,5.4,49.3,4.4,50,3.5z"/>
	<path class="st1" d="M63.7,9.3l-1.7,0L58.9,6l0.1,3.4l-1.4,0l-0.1-7.7l2.7,0c0.8,0,1.5,0.2,2,0.6c0.5,0.4,0.8,1,0.8,1.6
		c0,0.6-0.2,1.1-0.6,1.5c-0.4,0.4-1,0.7-1.6,0.7L63.7,9.3z M58.8,2.3l0.1,3.3l1,0c1,0,1.7-0.6,1.7-1.7c0-1.1-0.8-1.6-1.7-1.6
		L58.8,2.3z"/>
	<path class="st1" d="M70.5,9.2c-0.9,0.7-1.9,0.9-2.9,0.7s-2-0.7-2.6-1.5c-0.7-0.9-0.9-1.9-0.7-2.9c0.2-1.1,0.7-2,1.5-2.6
		c0.9-0.7,1.9-0.9,2.9-0.7s2,0.7,2.6,1.5c0.7,0.9,0.9,1.9,0.7,2.9C71.9,7.7,71.4,8.5,70.5,9.2z M70.3,4c-0.4-0.7-0.9-1.1-1.7-1.2
		c-0.7-0.1-1.3,0.1-1.9,0.7c-0.6,0.6-0.9,1.3-1.1,2.2s0,1.7,0.4,2.4c0.4,0.7,0.9,1.1,1.7,1.2c0.7,0.1,1.3-0.1,1.9-0.7
		c0.6-0.6,0.9-1.3,1.1-2.2C70.8,5.5,70.7,4.7,70.3,4z"/>
	<path class="st1" d="M77.4,12.2l-4.7-1.4l2.2-7.4l1.3,0.4l-2,6.8l3.5,0.9L77.4,12.2z"/>
	<path class="st1" d="M82.9,14.5l-4.5-1.9l3-7.1L82.6,6l-2.8,6.5l3.3,1.3L82.9,14.5z"/>
	<path class="st1" d="M94.5,13.4l-2.9-2L90,13.7l2.8,1.9l-0.4,0.6l-2.8-1.9l-2,3l-1.2-0.8l4.3-6.4l4.1,2.7L94.5,13.4z"/>
	<path class="st1" d="M97,23.3c-1.1,0.1-2-0.3-2.9-1s-1.3-1.6-1.3-2.7c-0.1-1.1,0.3-2,1-2.9c0.7-0.8,1.6-1.3,2.7-1.3
		c1.1-0.1,2,0.3,2.9,1c0.8,0.7,1.3,1.6,1.3,2.7c0.1,1.1-0.3,2-1,2.9C99,22.8,98.1,23.3,97,23.3z M99.7,18.9c0.1-0.8-0.2-1.4-0.7-1.9
		c-0.5-0.5-1.2-0.6-2-0.5c-0.8,0.1-1.5,0.6-2.1,1.2c-0.6,0.7-0.9,1.4-1,2.2c0,0.8,0.2,1.4,0.7,1.9s1.2,0.6,2,0.5
		c0.8-0.1,1.5-0.6,2.1-1.2C99.3,20.4,99.6,19.7,99.7,18.9z"/>
	<path class="st1" d="M101.9,30.6l-1.1-1.3l0.6-4.5l-2.6,2.1l-0.9-1l6-4.9l1.7,2.1c0.5,0.6,0.8,1.3,0.7,2c0,0.7-0.3,1.2-0.8,1.7
		c-0.4,0.4-1,0.5-1.6,0.4c-0.6-0.1-1.1-0.3-1.6-0.8L101.9,30.6z M104.2,22.4l-2.5,2.1l0.6,0.8c0.6,0.7,1.5,1,2.3,0.3
		c0.8-0.7,0.8-1.6,0.2-2.4L104.2,22.4z"/>
	<path class="st1" d="M108.1,41.9l-0.7-1.4l4-3.9l-5.8,0.7l-0.2-0.4l3.9-4.3l-5.5,0.9l-0.4-0.8l8.1-1.2l0.2,0.4l-4,4.3l5.8-0.7
		l0.2,0.4L108.1,41.9z"/>
	<path class="st1" d="M111,48.4c-1-0.5-1.6-1.3-1.9-2.4c-0.3-1.1-0.2-2.1,0.3-3c0.5-1,1.3-1.6,2.4-1.9c1.1-0.3,2.1-0.2,3,0.3
		c1,0.5,1.6,1.3,1.9,2.4c0.3,1.1,0.2,2.1-0.3,3c-0.5,1-1.3,1.6-2.4,1.9C113,49,112,48.9,111,48.4z M115.6,46c0.5-0.7,0.6-1.3,0.4-2
		c-0.2-0.7-0.7-1.2-1.4-1.5c-0.7-0.3-1.6-0.3-2.4-0.1c-0.9,0.3-1.5,0.7-2,1.4c-0.5,0.7-0.6,1.3-0.4,2c0.2,0.7,0.7,1.2,1.4,1.5
		c0.8,0.3,1.6,0.3,2.4,0.1C114.5,47.1,115.2,46.6,115.6,46z"/>
	<path class="st1" d="M111.3,57.1l-0.2-1.7l2.9-3.5l-3.3,0.4l-0.2-1.3l7.7-1l0.4,2.7c0.1,0.8,0,1.5-0.4,2.1c-0.4,0.6-0.9,0.9-1.5,1
		c-0.6,0.1-1.1-0.1-1.6-0.5c-0.5-0.4-0.8-0.9-0.9-1.5L111.3,57.1z M117.6,51.4l-3.2,0.4l0.1,1c0.1,1,0.8,1.6,1.8,1.5
		c1-0.1,1.5-1,1.4-1.9L117.6,51.4z"/>
	<path class="st1" d="M111.3,62.6l-0.1-4.9l7.7-0.1l0.1,4.9l-0.8,0l0-3.6l-2.8,0l0.1,3.4l-0.7,0l0-3.4l-2.9,0l0.1,3.6L111.3,62.6z"
		/>
	<path class="st1" d="M111.8,64.2c0.4,0,0.7,0.4,0.7,0.8c0,0.4-0.4,0.7-0.8,0.6c-0.4,0-0.7-0.4-0.7-0.8
		C111,64.4,111.3,64.2,111.8,64.2z"/>
	<path class="st1" d="M109.8,74.6c-0.3-0.6-0.4-1.4-0.2-2.1c0.2-0.7,0.5-1.3,1.1-1.7c0.5-0.4,1.1-0.6,1.7-0.5l0,1
		c-0.4-0.1-0.9,0-1.3,0.3c-0.4,0.3-0.7,0.7-0.8,1.1c-0.2,0.9,0.2,1.8,1,2c0.7,0.2,1.2-0.2,1.8-1.5c0.8-1.5,1.6-2,2.7-1.8
		c0.6,0.2,1.1,0.5,1.3,1.1c0.3,0.6,0.3,1.3,0.2,2c-0.2,0.7-0.5,1.2-1,1.6c-0.5,0.4-1,0.6-1.5,0.5l0-1c0.4,0,0.7-0.1,1.1-0.4
		c0.3-0.3,0.6-0.6,0.7-1c0.2-0.8-0.1-1.5-0.8-1.7c-0.3-0.1-0.6,0-0.8,0.2c-0.2,0.2-0.5,0.6-0.8,1.2c-0.9,1.7-1.7,2.2-3,1.9
		C110.6,75.7,110.1,75.3,109.8,74.6z"/>
	<path class="st1" d="M114.6,79.6c0.4,1,0.5,2,0.1,2.9c-0.4,0.9-1,1.6-1.9,2.2l-0.5-0.9c0.9-0.3,1.5-0.8,1.7-1.4
		c0.3-0.7,0.2-1.4-0.2-2.1c-0.4-0.7-1-1.2-1.9-1.5c-0.9-0.3-1.7-0.4-2.4-0.2c-0.8,0.2-1.3,0.7-1.5,1.3c-0.3,0.7-0.2,1.5,0.1,2.5
		l-0.6,0.2c-0.5-1.1-0.5-2.1-0.1-3.2c0.4-1,1.1-1.7,2-2.1c1-0.4,2-0.4,3,0C113.5,78,114.2,78.7,114.6,79.6z"/>
	<path class="st1" d="M102.8,88.7l0.9-1.5l4.4-1l-2.9-1.7l0.7-1.2l6.7,3.8l-1.3,2.4c-0.4,0.7-0.9,1.2-1.6,1.4
		c-0.6,0.2-1.2,0.2-1.8-0.1c-0.5-0.3-0.8-0.7-1-1.3c-0.1-0.6-0.1-1.2,0.2-1.8L102.8,88.7z M111.2,88l-2.8-1.6l-0.5,0.9
		c-0.5,0.8-0.4,1.8,0.6,2.3s1.8,0.2,2.3-0.7L111.2,88z"/>
	<path class="st1" d="M99.4,94.6c-0.1-1.1,0.1-2.1,0.8-2.9s1.6-1.4,2.6-1.5c1.1-0.1,2.1,0.1,2.9,0.8c0.9,0.7,1.4,1.6,1.5,2.6
		s-0.1,2.1-0.8,2.9c-0.7,0.9-1.6,1.4-2.6,1.5c-1.1,0.1-2.1-0.1-2.9-0.8C100.1,96.6,99.6,95.7,99.4,94.6z M104.1,97
		c0.8,0,1.4-0.3,1.9-0.8s0.6-1.2,0.4-2c-0.2-0.8-0.6-1.4-1.4-2c-0.7-0.6-1.5-0.9-2.3-0.9c-0.8,0-1.4,0.3-1.9,0.8s-0.6,1.2-0.4,2
		c0.2,0.8,0.6,1.4,1.4,2S103.3,97,104.1,97z"/>
	<path class="st1" d="M93.4,99.1l3.6-3.4l5.3,5.6l-1,0.9l-4.9-5.1L94,99.6L93.4,99.1z"/>
	<path class="st1" d="M88.7,102.7l3.9-3l4.7,6.2l-1.1,0.8l-4.2-5.6l-2.8,2.2L88.7,102.7z"/>
	<path class="st1" d="M83.8,113.3l3.2-1.5l-1.2-2.5l-3,1.5l-0.3-0.7l3-1.5l-1.6-3.2l1.2-0.6l3.5,6.9l-4.4,2.2L83.8,113.3z"/>
	<path class="st1" d="M74,110.5c0.5-1,1.3-1.6,2.3-2c1-0.3,2.1-0.3,3,0.2c1,0.5,1.6,1.3,2,2.3c0.3,1,0.3,2.1-0.2,3
		c-0.5,1-1.3,1.6-2.3,2c-1,0.3-2.1,0.3-3-0.2c-1-0.5-1.6-1.3-2-2.3C73.4,112.5,73.5,111.5,74,110.5z M76.5,115.1
		c0.7,0.5,1.3,0.6,2,0.3c0.7-0.2,1.1-0.7,1.4-1.5c0.3-0.8,0.3-1.6,0-2.4s-0.8-1.5-1.4-2c-0.7-0.4-1.3-0.6-2-0.3
		c-0.7,0.2-1.1,0.7-1.4,1.5c-0.3,0.8-0.3,1.6,0,2.4S75.9,114.6,76.5,115.1z"/>
	<path class="st1" d="M65.3,111.1l1.7-0.3l3.6,2.8l-0.6-3.3l1.3-0.2l1.3,7.6l-2.7,0.5c-0.8,0.1-1.5,0-2.1-0.3
		c-0.6-0.3-0.9-0.8-1-1.5c-0.1-0.6,0-1.1,0.4-1.6c0.4-0.5,0.9-0.8,1.5-1L65.3,111.1z M71.2,117.3l-0.5-3.2l-1,0.2
		c-1,0.2-1.6,0.9-1.4,1.9s1,1.5,2,1.3L71.2,117.3z"/>
	<path class="st1" d="M52.3,110.9l1.5,0.1l1.4,5.4l2.3-5.3l0.4,0l1.7,5.6l2-5.3l0.9,0l-3,7.7l-0.5,0l-1.8-5.6l-2.3,5.4l-0.5,0
		L52.3,110.9z"/>
	<path class="st1" d="M45.3,110.2c0.9-0.6,1.9-0.7,3-0.5s1.9,0.9,2.5,1.8s0.7,1.9,0.5,3c-0.3,1.1-0.9,1.9-1.8,2.5
		c-0.9,0.6-1.9,0.7-3,0.5c-1.1-0.3-1.9-0.9-2.5-1.8s-0.7-1.9-0.5-3C43.7,111.5,44.3,110.7,45.3,110.2z M45,115.4
		c0.3,0.7,0.8,1.2,1.5,1.4c0.7,0.2,1.3,0,2-0.5c0.6-0.5,1-1.2,1.3-2.1c0.2-0.9,0.2-1.7-0.2-2.4c-0.3-0.7-0.8-1.2-1.5-1.3
		c-0.7-0.2-1.3,0-2,0.5c-0.6,0.5-1,1.2-1.3,2.1C44.6,113.8,44.7,114.6,45,115.4z"/>
	<path class="st1" d="M37.6,106.1l1.6,0.6l1.6,4.3l1.3-3.1l1.3,0.5l-2.9,7.2l-2.5-1c-0.7-0.3-1.3-0.8-1.6-1.4
		c-0.3-0.6-0.3-1.2-0.1-1.8c0.2-0.5,0.6-0.9,1.2-1.1c0.6-0.2,1.1-0.2,1.8,0L37.6,106.1z M39.4,114.4l1.2-3l-0.9-0.4
		c-0.9-0.4-1.8-0.1-2.2,0.9c-0.4,1,0.1,1.8,1,2.2L39.4,114.4z"/>
	<path class="st1" d="M32.8,103.3l4.3,2.4l-3.8,6.7L29,110l0.4-0.7l3.1,1.8l1.4-2.4l-3-1.7l0.4-0.6l3,1.7l1.4-2.5l-3.1-1.7
		L32.8,103.3z"/>
	<path class="st1" d="M31.2,102.9c-0.2,0.4-0.7,0.4-1,0.2c-0.3-0.2-0.4-0.7-0.2-1s0.7-0.4,1-0.2C31.4,102.1,31.5,102.6,31.2,102.9z"
		/>
	<path class="st1" d="M23.1,96c0.7,0.1,1.4,0.4,1.9,0.9c0.6,0.5,0.9,1.1,1,1.8c0.1,0.7-0.1,1.2-0.4,1.7l-0.9-0.5
		c0.3-0.3,0.4-0.8,0.4-1.3c0-0.5-0.2-0.9-0.6-1.3c-0.7-0.7-1.6-0.7-2.2-0.1c-0.5,0.5-0.4,1.1,0.4,2.3c0.9,1.4,1,2.4,0.2,3.2
		c-0.4,0.5-1,0.7-1.6,0.6c-0.7-0.1-1.3-0.3-1.8-0.9c-0.5-0.5-0.8-1-0.9-1.6c-0.1-0.6,0-1.1,0.3-1.5l0.9,0.5
		c-0.2,0.3-0.3,0.7-0.2,1.1c0.1,0.4,0.2,0.8,0.5,1.1c0.6,0.6,1.4,0.6,1.9,0.1c0.2-0.2,0.3-0.5,0.2-0.8s-0.3-0.7-0.6-1.3
		c-1-1.6-1-2.6-0.1-3.5C21.9,96.2,22.4,96,23.1,96z"/>
	<path class="st1" d="M16.4,97.7c-1.1-0.1-1.9-0.6-2.6-1.4c-0.6-0.8-0.9-1.7-1-2.7l1,0c-0.1,0.9,0,1.7,0.4,2.2
		c0.5,0.6,1.1,0.9,1.9,0.8c0.8,0,1.6-0.3,2.3-0.9c0.7-0.6,1.2-1.2,1.4-2c0.2-0.8,0.1-1.4-0.4-2c-0.5-0.6-1.2-1-2.2-1.2l0.1-0.6
		c1.2,0.1,2.1,0.6,2.8,1.5c0.6,0.8,0.9,1.7,0.8,2.8c-0.1,1-0.6,1.9-1.5,2.6C18.5,97.5,17.5,97.8,16.4,97.7z"/>
	<path class="st1" d="M14.5,82.9l0.9,1.5L14,88.7l2.9-1.7l0.7,1.2l-6.7,3.9l-1.4-2.3c-0.4-0.7-0.6-1.4-0.4-2c0.1-0.7,0.5-1.2,1-1.5
		c0.5-0.3,1-0.4,1.6-0.2c0.6,0.2,1,0.5,1.4,1.1L14.5,82.9z M10.8,90.6l2.8-1.6l-0.5-0.9c-0.5-0.8-1.4-1.2-2.3-0.7s-1,1.5-0.5,2.3
		L10.8,90.6z"/>
	<path class="st1" d="M11,77.1c1,0.4,1.7,1.2,2.1,2.2c0.4,1,0.4,2,0,3c-0.4,1-1.2,1.7-2.2,2.1c-1,0.4-2,0.4-3,0
		c-1-0.4-1.7-1.2-2.1-2.2c-0.4-1-0.4-2,0-3c0.4-1,1.2-1.7,2.2-2.1C9,76.6,10,76.6,11,77.1z M6.6,79.9c-0.4,0.7-0.5,1.4-0.2,2
		s0.8,1.1,1.6,1.3c0.8,0.2,1.6,0.2,2.4-0.2c0.8-0.3,1.5-0.9,1.9-1.6c0.4-0.7,0.5-1.4,0.2-2s-0.8-1.1-1.6-1.3
		C10.1,78,9.3,78,8.5,78.4C7.6,78.7,7,79.2,6.6,79.9z"/>
	<path class="st1" d="M10.1,69.6l1.2,4.8l-7.5,1.8L3.5,75l6.8-1.7l-0.9-3.5L10.1,69.6z"/>
	<path class="st1" d="M9.4,63.7l0.6,4.9l-7.7,0.9l-0.2-1.3l7-0.9l-0.5-3.5L9.4,63.7z"/>
	<path class="st1" d="M2.6,54.3l-0.3,3.5l2.8,0.2l0.2-3.4l0.7,0L5.8,58l3.6,0.2l-0.1,1.4l-7.7-0.4l0.3-4.9L2.6,54.3z"/>
	<path class="st1" d="M9.9,47c0.6,0.9,0.8,1.9,0.6,3s-0.8,1.9-1.7,2.5s-1.9,0.8-3,0.6c-1.1-0.2-1.9-0.8-2.5-1.7
		c-0.6-0.9-0.8-1.9-0.6-3c0.2-1.1,0.8-1.9,1.7-2.5c0.9-0.6,1.9-0.8,3-0.6C8.5,45.6,9.3,46.1,9.9,47z M4.7,47
		c-0.7,0.4-1.2,0.9-1.3,1.6c-0.1,0.7,0,1.3,0.6,2c0.5,0.6,1.2,1,2.1,1.2c0.9,0.2,1.7,0.1,2.4-0.3c0.7-0.4,1.1-0.9,1.3-1.6
		s0-1.3-0.6-2c-0.5-0.6-1.2-1-2.1-1.2C6.2,46.6,5.4,46.6,4.7,47z"/>
	<path class="st1" d="M13.7,39.3l-0.6,1.6l-4.2,1.7l3.1,1.2L11.6,45l-7.3-2.7l0.9-2.5C5.6,39,6,38.5,6.6,38.2
		c0.6-0.3,1.2-0.4,1.8-0.2c0.5,0.2,0.9,0.6,1.2,1.1c0.2,0.5,0.3,1.1,0.1,1.8L13.7,39.3z M5.5,41.3l3.1,1.1l0.3-0.9
		c0.3-0.9,0.1-1.8-0.9-2.2s-1.8,0.1-2.1,1L5.5,41.3z"/>
	<path class="st1" d="M20.4,28.2l-0.8,1.3l-5.4-1.5l3.5,4.6l-0.2,0.3l-5.7-1.3l3.6,4.3l-0.5,0.7l-5.1-6.4l0.3-0.4l5.7,1.3l-3.5-4.7
		l0.3-0.4L20.4,28.2z"/>
	<path class="st1" d="M24.5,22.4c0,1.1-0.3,2-1.1,2.8c-0.8,0.8-1.7,1.2-2.8,1.2c-1.1,0-2-0.3-2.8-1.1c-0.8-0.8-1.2-1.7-1.2-2.8
		s0.3-2,1.1-2.8c0.8-0.8,1.7-1.2,2.8-1.2c1.1,0,2,0.3,2.8,1.1C24.1,20.4,24.5,21.3,24.5,22.4z M20.1,19.6c-0.8-0.1-1.4,0.1-1.9,0.6
		c-0.5,0.5-0.7,1.2-0.6,2c0.1,0.8,0.5,1.5,1.2,2.1s1.4,1,2.2,1.1c0.8,0.1,1.4-0.1,1.9-0.7c0.5-0.5,0.7-1.2,0.6-2
		c-0.1-0.8-0.5-1.5-1.2-2.1S20.9,19.7,20.1,19.6z"/>
	<path class="st1" d="M31.9,17.8l-1.4,1.1l-4.5-0.8l2.1,2.6l-1.1,0.8l-4.7-6.1l2.1-1.7c0.6-0.5,1.3-0.7,2-0.7c0.7,0,1.2,0.3,1.6,0.8
		c0.4,0.5,0.5,1,0.4,1.6c-0.1,0.6-0.4,1.1-0.9,1.6L31.9,17.8z M23.8,15.2l2,2.6l0.8-0.6c0.8-0.6,1-1.5,0.4-2.3s-1.6-0.8-2.4-0.2
		L23.8,15.2z"/>
	<path class="st1" d="M36.8,15l-4.3,2.5l-3.9-6.7l4.3-2.5L33.2,9l-3.1,1.8l1.4,2.4l3-1.8l0.4,0.6l-3,1.7l1.5,2.5l3.1-1.9L36.8,15z"
		/>
	<path class="st1" d="M37.8,13.8c-0.2-0.4,0-0.8,0.3-1c0.4-0.2,0.8,0,1,0.4c0.2,0.4,0,0.8-0.3,1C38.4,14.3,38,14.2,37.8,13.8z"/>
</g>
</svg>
